<svg width="96" height="96" xmlns="http://www.w3.org/2000/svg" xmlns:xlink="http://www.w3.org/1999/xlink" xml:space="preserve" overflow="hidden"><g transform="translate(-223 -91)"><path d="M308.5 166.6 296 154.1C294.3 152.4 292 151.8 289.8 152.2L285.4 147.8C289.3 142.8 291.6 136.4 291.6 129.6 291.6 113.1 278.1 99.6 261.6 99.6 245.1 99.6 231.6 113.1 231.6 129.6 231.6 146.1 245.1 159.6 261.6 159.6 268.4 159.6 274.7 157.3 279.8 153.4L284.2 157.8C283.8 160 284.4 162.3 286.1 164L298.6 176.5C300 177.9 301.8 178.6 303.6 178.6 305.4 178.6 307.2 177.9 308.6 176.5 311.2 173.7 311.2 169.3 308.5 166.6ZM261.5 153.5C248.3 153.5 237.5 142.7 237.5 129.5 237.5 116.3 248.3 105.5 261.5 105.5 274.7 105.5 285.5 116.3 285.5 129.5 285.5 142.7 274.7 153.5 261.5 153.5Z"/></g></svg>